<svg width="20" height="20" viewBox="0 0 20 20" fill="none" xmlns="http://www.w3.org/2000/svg">
<path d="M14.1667 5.41667C14.1667 4.72631 13.607 4.16667 12.9167 4.16667H7.08333C6.39298 4.16667 5.83333 4.72631 5.83333 5.41667V15.5541L9.80005 13.3844C9.92464 13.3163 10.0754 13.3163 10.1999 13.3844L14.1667 15.5541V5.41667ZM5.61661 16.6225C5.33895 16.7744 5 16.5734 5 16.2569V5.41667C5 4.26608 5.93274 3.33334 7.08333 3.33334H12.9167C14.0673 3.33334 15 4.26608 15 5.41667V16.2569C15 16.5734 14.6611 16.7744 14.3834 16.6225L10 14.2249L5.61661 16.6225Z" fill="white"/>
</svg>
