<svg width="428" height="428" viewBox="0 0 428 428" fill="none" xmlns="http://www.w3.org/2000/svg">
<path d="M224.667 211.312V107.333C224.667 101.443 219.891 96.6667 214 96.6667C208.109 96.6667 203.333 101.443 203.333 107.333V214C203.336 215.759 203.773 217.491 204.604 219.042L236.604 278.75C238.46 282.214 242.07 284.376 246 284.375C247.76 284.381 249.495 283.944 251.042 283.104C251.036 283.107 251.047 283.102 251.042 283.104C256.224 280.318 258.182 273.849 255.396 268.667L224.667 211.312ZM214 0.666668C96.1797 0.666668 0.666687 96.1797 0.666687 214C0.666687 331.82 96.1797 427.333 214 427.333C331.763 427.195 427.195 331.763 427.333 214C427.333 96.1797 331.82 0.666668 214 0.666668ZM214 406C107.961 406 22 320.039 22 214C22 107.961 107.961 22 214 22C319.991 22.1159 405.884 108.009 406 214C406 320.039 320.039 406 214 406Z" fill="white"/>
</svg>
