<svg width="342" height="342" viewBox="0 0 342 342" fill="none" xmlns="http://www.w3.org/2000/svg">
<path d="M338.54 323.46L186.081 171L338.54 18.5404C342.534 14.4076 342.534 7.85417 338.54 3.72005C334.448 -0.516926 327.695 -0.634114 323.458 3.45833L170.999 155.918L18.5404 3.45964C14.4075 -0.532551 7.85416 -0.532551 3.72004 3.45964C-0.516939 7.55208 -0.634124 14.3047 3.45832 18.5417L155.917 171L3.45832 323.458C1.45832 325.458 0.334626 328.171 0.334626 330.999C0.333322 336.889 5.10937 341.665 11 341.667C13.8294 341.669 16.543 340.544 18.5404 338.54L170.999 186.082L323.458 338.542C325.456 340.546 328.171 341.671 331 341.667C333.827 341.665 336.538 340.543 338.538 338.544C342.704 334.379 342.706 327.625 338.54 323.46Z" fill="black"/>
</svg>
