<svg width="422" height="442" viewBox="0 0 422 442" fill="none" xmlns="http://www.w3.org/2000/svg">
<path fill-rule="evenodd" clip-rule="evenodd" d="M150.354 408.123V342.7C150.354 326.059 163.92 312.538 180.728 312.426H242.298C259.187 312.426 272.877 325.98 272.877 342.7V408.326C272.874 422.455 284.264 434.002 298.531 434.333H339.578C380.496 434.333 413.667 401.494 413.667 360.986V174.874C413.448 158.938 405.89 143.973 393.143 134.238L252.765 22.2864C228.172 2.79342 193.212 2.79342 168.62 22.2864L28.8565 134.441C16.0615 144.136 8.4909 159.126 8.33331 175.077V360.986C8.33331 401.494 41.504 434.333 82.4221 434.333H123.469C138.09 434.333 149.943 422.599 149.943 408.123" fill="black"/>
<path d="M150.354 408.123V342.7C150.354 326.059 163.92 312.538 180.728 312.426H242.298C259.187 312.426 272.877 325.98 272.877 342.7V408.326C272.874 422.455 284.264 434.002 298.531 434.333H339.578C380.496 434.333 413.667 401.494 413.667 360.986V174.874C413.448 158.938 405.89 143.973 393.143 134.238L252.765 22.2864C228.172 2.79342 193.212 2.79342 168.62 22.2864L28.8565 134.441C16.0615 144.136 8.4909 159.126 8.33331 175.077V360.986C8.33331 401.494 41.504 434.333 82.4221 434.333H123.469C138.09 434.333 149.943 422.599 149.943 408.123" stroke="black" stroke-width="15" stroke-linecap="round" stroke-linejoin="round"/>
</svg>
