<svg width="342" height="404" viewBox="0 0 342 404" fill="none" xmlns="http://www.w3.org/2000/svg">
<path fill-rule="evenodd" clip-rule="evenodd" d="M7.43481 170.681C7.74217 80.2153 81.3284 7.12743 171.794 7.43382C262.26 7.74215 335.348 81.3284 335.042 171.794V173.649C333.928 232.455 301.093 286.809 260.838 329.29C237.816 353.197 212.107 374.361 184.223 392.362C176.767 398.812 165.708 398.812 158.252 392.362C116.684 365.306 80.2014 331.147 50.4725 291.446C23.9756 256.827 8.93167 214.808 7.43481 171.238V170.681Z" stroke="black" stroke-width="13" stroke-linecap="round" stroke-linejoin="round"/>
<path d="M171.229 226.333C200.225 226.333 223.731 202.828 223.731 173.832C223.731 144.836 200.225 121.331 171.229 121.331C142.234 121.331 118.728 144.836 118.728 173.832C118.728 202.828 142.234 226.333 171.229 226.333Z" stroke="black" stroke-width="13" stroke-linecap="round" stroke-linejoin="round"/>
</svg>
