<svg width="13" height="12" viewBox="0 0 13 12" fill="none" xmlns="http://www.w3.org/2000/svg">
<path d="M8.40664 5.10441C8.35665 5.09978 8.29667 5.09978 8.24168 5.10441C7.05198 5.06739 6.10724 4.16507 6.10724 3.05452C6.10724 1.92083 7.09697 1 8.32666 1C9.55133 1 10.5461 1.92083 10.5461 3.05452C10.5411 4.16507 9.59632 5.06739 8.40664 5.10441Z" stroke="#575757" stroke-width="0.5" stroke-linecap="round" stroke-linejoin="round"/>
<path d="M5.90726 6.57284C4.69758 7.32246 4.69758 8.54406 5.90726 9.28906C7.28189 10.1405 9.5363 10.1405 10.9109 9.28906C12.1206 8.53944 12.1206 7.31783 10.9109 6.57284C9.54129 5.72604 7.28689 5.72604 5.90726 6.57284Z" stroke="#575757" stroke-width="0.5" stroke-linecap="round" stroke-linejoin="round"/>
<path d="M4.40664 5.93774C4.35665 5.93312 4.29667 5.93312 4.24168 5.93774C3.05198 5.90072 2.10724 4.9984 2.10724 3.88785C2.10724 2.75417 3.09697 1.83333 4.32666 1.83333C5.55133 1.83333 6.54606 2.75417 6.54606 3.88785C6.54107 4.9984 5.59632 5.90072 4.40664 5.93774Z" fill="#FFFFFF" stroke="#575757" stroke-width="0.5" stroke-linecap="round" stroke-linejoin="round"/>
<path d="M1.90726 7.64522C0.697581 8.39484 0.697581 9.61644 1.90726 10.3614C3.28189 11.2129 5.5363 11.2129 6.91093 10.3614C8.1206 9.61182 8.1206 8.39021 6.91093 7.64522C5.54129 6.79842 3.28689 6.79842 1.90726 7.64522Z" fill="#FFFFFF" stroke="#575757" stroke-width="0.5" stroke-linecap="round" stroke-linejoin="round"/>
</svg>
