<svg width="342" height="429" viewBox="0 0 342 429" fill="none" xmlns="http://www.w3.org/2000/svg">
<path fill="none" d="M171.019 213.195C227.313 213.195 272.949 167.559 272.949 111.264C272.949 54.9692 227.313 9.33333 171.019 9.33333C114.724 9.33333 69.088 54.9692 69.088 111.264C69.088 167.559 114.724 213.195 171.019 213.195Z" stroke="currentColor" stroke-width="18" stroke-linecap="round" stroke-linejoin="round"/>
<path fill-rule="evenodd" fill="none" clip-rule="evenodd" d="M9.33334 354.963C9.3063 347.797 10.9089 340.719 14.0202 334.264C23.7837 314.737 51.3169 304.387 74.1636 299.701C90.6406 296.185 107.345 293.836 124.153 292.671C155.271 289.938 186.569 289.938 217.688 292.671C234.494 293.849 251.198 296.198 267.677 299.701C290.524 304.387 318.057 313.76 327.82 334.264C334.077 347.422 334.077 362.698 327.82 375.857C318.057 396.36 290.524 405.733 267.677 410.224C251.219 413.886 234.509 416.301 217.688 417.449C192.36 419.596 166.914 419.988 141.532 418.621C135.674 418.621 130.011 418.621 124.153 417.449C107.395 416.315 90.7481 413.9 74.3589 410.224C51.3169 405.733 23.979 396.36 14.0202 375.857C10.9248 369.327 9.32379 362.189 9.33334 354.963Z" stroke="currentColor" stroke-width="18" stroke-linecap="round" stroke-linejoin="round"/>
</svg>
