<svg width="432" height="432" viewBox="0 0 432 432" fill="none" xmlns="http://www.w3.org/2000/svg">
<path d="M278.764 294.112C232.296 334.688 162.812 347.472 104.36 323.572C33.88 294.756 -11.016 213.7 2.46801 138.284C15.96 62.816 86.128 1.772 164.592 0.0320033C166.036 0.00800334 167.48 3.46149e-06 168.928 0.00400346C246.044 0.736003 318.744 60.244 333.028 137.252C342.604 188.868 326.092 244.632 290.272 282.984L429.42 418.264C432.404 421.416 431.888 422.464 431.84 424.22C431.672 430.32 423.4 434.328 418.264 429.736L278.764 294.112ZM166.86 16.004C98.028 16.656 33.44 68.696 19.124 136.448C8.58801 186.324 25.184 241.112 61.68 276.74C103.592 317.652 169.932 331.388 225.268 308.76C289.28 282.592 329.996 208.624 317.296 140.168C304.708 72.3 241.856 17.608 170.788 16.028C169.479 16.008 168.169 16 166.86 16.004Z" fill="black"/>
</svg>
