<svg height="24" viewBox="0 0 24 24" width="24" xmlns="http://www.w3.org/2000/svg"><path d="m6.90365714 19.8034496c-.09097087.124217-.23789391.2048814-.40365714.2048814s-.31268627-.0806644-.40365714-.2048814l-2.94989625-2.9498962c-.19526215-.1952622-.19526215-.5118446 0-.7071068.19526215-.1952621.51184463-.1952621.70710678 0l2.14644661 2.1464466v-13.7928932c0-.27614237.22385763-.5.5-.5s.5.22385763.5.5v13.7928932l2.14644661-2.1464466c.19526215-.1952621.51184463-.1952621.70710678 0 .19526211.1952622.19526211.5118446 0 .7071068zm5.59634286-13.8034496c-.2761424 0-.5-.22385763-.5-.5s.2238576-.5.5-.5h8c.2761424 0 .5.22385763.5.5s-.2238576.5-.5.5zm0 4c-.2761424 0-.5-.22385763-.5-.5s.2238576-.5.5-.5h6c.2761424 0 .5.22385763.5.5s-.2238576.5-.5.5zm0 4c-.2761424 0-.5-.2238576-.5-.5s.2238576-.5.5-.5h4c.2761424 0 .5.2238576.5.5s-.2238576.5-.5.5zm0 4c-.2761424 0-.5-.2238576-.5-.5s.2238576-.5.5-.5h2c.2761424 0 .5.2238576.5.5s-.2238576.5-.5.5z"/></svg>