<svg width="10" height="10" viewBox="0 0 10 10" fill="none" xmlns="http://www.w3.org/2000/svg">
<path d="M5.34997 0.778609L6.48568 3.07147C6.51151 3.12967 6.55215 3.18007 6.60353 3.21767C6.65492 3.25527 6.71526 3.27874 6.77854 3.28575L9.2857 3.65718C9.35828 3.66651 9.42671 3.6963 9.48299 3.74308C9.53928 3.78985 9.58113 3.85168 9.60363 3.92133C9.62606 3.99099 9.62828 4.0656 9.60992 4.13645C9.59156 4.20731 9.55342 4.27147 9.49999 4.32147L7.69285 6.11432C7.64671 6.15742 7.61206 6.21135 7.59213 6.27124C7.57221 6.33112 7.56749 6.39504 7.57856 6.45718L8.01428 8.9786C8.02685 9.05103 8.01892 9.1256 7.99128 9.19374C7.96356 9.26189 7.91735 9.32089 7.85785 9.36403C7.79828 9.40724 7.72785 9.43282 7.65442 9.43789C7.58106 9.44303 7.50778 9.42739 7.44285 9.39289L5.18568 8.20003C5.12789 8.17167 5.06436 8.15689 4.99997 8.15689C4.93558 8.15689 4.87206 8.17167 4.81426 8.20003L2.55711 9.39289C2.49218 9.42739 2.41886 9.44303 2.34549 9.43789C2.27213 9.43282 2.20166 9.40724 2.14213 9.36403C2.08258 9.32089 2.03636 9.26189 2.0087 9.19374C1.98104 9.1256 1.97307 9.05103 1.98568 8.9786L2.4214 6.42861C2.43244 6.36647 2.42777 6.30254 2.40781 6.24267C2.38785 6.18278 2.35323 6.12884 2.30711 6.08575L0.478543 4.32147C0.424445 4.27011 0.3864 4.20416 0.369017 4.13162C0.351634 4.05908 0.35566 3.98305 0.380605 3.91275C0.405551 3.84245 0.450346 3.78089 0.509565 3.73553C0.568784 3.69017 0.639886 3.66295 0.714257 3.65718L3.2214 3.28575C3.28468 3.27874 3.34503 3.25527 3.39641 3.21767C3.44779 3.18007 3.48843 3.12967 3.51426 3.07147L4.64997 0.778609C4.6809 0.711831 4.73028 0.655293 4.79231 0.61567C4.85432 0.576047 4.92638 0.554993 4.99997 0.554993C5.07356 0.554993 5.14562 0.576047 5.20764 0.61567C5.26966 0.655293 5.31904 0.711831 5.34997 0.778609Z" fill="#00B3FF" stroke="#00B3FF" stroke-linecap="round" stroke-linejoin="round"/>
</svg>
